<svg version="1.1" id="Layer_1" xmlns="http://www.w3.org/2000/svg" xmlns:xlink="http://www.w3.org/1999/xlink" x="0px" y="0px"
	 width="100%" viewBox="0 0 200 200" enable-background="new 0 0 200 200" xml:space="preserve">
<path fill="#000000" opacity="1.000000" stroke="none" 
	d="
M95.269531,200.728928 
	C64.866936,201.000000 34.733776,200.965927 4.600998,201.058502 
	C1.912132,201.066757 0.888214,200.885452 0.895368,197.608383 
	C1.036016,133.180542 1.042619,68.752213 0.882770,4.324468 
	C0.874157,0.853310 2.161947,0.955256 4.668102,0.960101 
	C36.132870,1.020931 67.597794,1.000000 99.531342,1.000000 
	C102.541557,3.435176 100.590530,5.204421 99.048195,6.941183 
	C92.023865,14.851028 83.557411,21.068680 74.797546,26.815275 
	C60.219326,36.378792 44.663441,43.798241 27.242765,46.616657 
	C23.478741,47.225620 21.730902,49.341461 21.910505,53.136124 
	C23.508354,86.895378 31.217178,118.934883 48.916489,148.092957 
	C60.536812,167.236404 75.058632,183.715546 93.938820,196.085541 
	C95.465996,197.086121 98.077110,197.884369 95.269531,200.728928 
z"/>
<path fill="#000000" opacity="1.000000" stroke="none" 
	d="
M101.748856,1.266655 
	C133.797867,1.000000 165.595825,1.031361 197.393448,0.943136 
	C200.066879,0.935718 201.112991,1.092920 201.105713,4.386029 
	C200.963425,68.813843 200.957947,133.242172 201.116226,197.669907 
	C201.124710,201.124695 199.858841,201.047089 197.337509,201.041611 
	C167.537552,200.976959 137.737411,201.000000 107.468658,201.000000 
	C104.355042,198.898300 105.608719,197.630478 107.805672,196.175659 
	C114.607727,191.671356 121.068253,186.765335 126.925278,181.003677 
	C157.816589,150.615326 173.632782,113.252357 178.611313,70.720375 
	C179.270111,65.092346 179.313538,59.443306 179.982635,53.824913 
	C180.530014,49.228527 178.998169,47.460907 174.450714,46.584000 
	C146.718475,41.236290 123.765038,27.179838 103.759262,7.769712 
	C102.033882,6.095703 100.119461,4.382508 101.748856,1.266655 
z"/>
<path fill="#676767" opacity="1.000000" stroke="none" 
	d="
M101.666672,1.000000 
	C103.557594,5.676865 107.562454,8.434658 110.994026,11.303096 
	C126.747864,24.471651 143.762451,35.610622 163.774124,41.352997 
	C168.662384,42.755688 173.537704,44.526226 178.762482,43.983398 
	C181.973114,43.649837 183.178116,44.806244 183.041718,48.138371 
	C181.999069,73.609467 178.339111,98.577003 168.835876,122.407043 
	C158.778900,147.625595 143.991302,169.659058 123.637222,187.720840 
	C118.393028,192.374466 112.361443,196.140747 106.845779,200.657318 
	C103.307091,201.000000 99.614182,201.000000 95.460632,201.000000 
	C95.602226,199.646851 94.533173,199.422043 93.693146,198.898590 
	C74.219971,186.763870 59.421608,170.069214 47.426167,150.791229 
	C34.504154,130.024155 26.474106,107.325661 22.293554,83.300865 
	C21.055145,76.183975 19.872503,68.977142 20.020798,61.685413 
	C20.118698,56.871552 18.464420,52.219208 18.945005,47.351021 
	C19.157097,45.202606 19.499933,44.041870 22.016249,43.973606 
	C39.609322,43.496334 54.739426,35.910442 69.336609,27.079718 
	C79.513657,20.923000 89.098030,13.912699 97.295303,5.186666 
	C98.294983,4.122505 99.714401,3.350760 99.981232,1.350599 
	C100.444443,1.000000 100.888893,1.000000 101.666672,1.000000 
z"/>
<path fill="#999999" opacity="1.000000" stroke="none" 
	d="
M148.204346,146.192963 
	C137.111557,163.920380 123.861130,179.104080 106.675888,190.681564 
	C102.646126,193.396362 99.366440,193.432236 95.344261,190.685654 
	C70.594681,173.785248 53.861511,150.557159 42.091763,123.452606 
	C33.105000,102.756981 28.853920,80.927895 27.126427,58.510647 
	C26.743933,53.547131 28.353075,51.586079 33.339813,50.536346 
	C57.447823,45.461479 77.733078,32.866661 96.178925,17.103336 
	C99.779762,14.026163 101.806145,13.633060 105.644585,16.923321 
	C124.718483,33.273209 145.737000,46.175690 170.849014,51.042557 
	C175.442963,51.932899 175.000504,55.094112 174.788589,58.253986 
	C172.694489,89.478912 164.854752,118.981186 148.204346,146.192963 
z"/>
<path fill="#F0F0F0" opacity="1.000000" stroke="none" 
	d="
M109.885223,179.063049 
	C109.807411,179.640060 109.705750,179.777359 109.575546,179.877533 
	C99.864029,187.349411 101.907181,187.020203 92.350143,179.783630 
	C90.833122,162.561859 91.811737,145.564331 91.494675,128.175735 
	C90.175247,122.793213 95.054718,122.168045 97.507423,119.347908 
	C94.227852,120.260864 91.209099,121.530029 88.791725,118.254860 
	C86.866043,115.645866 85.744965,113.076538 88.442642,109.371574 
	C84.808205,110.804428 82.530403,110.050903 81.033417,107.009270 
	C80.153717,105.221863 80.389885,104.234192 82.566933,103.388992 
	C87.984283,100.741821 90.034782,97.282379 89.784729,91.112518 
	C89.044472,72.847908 89.506172,54.543797 89.533730,36.255127 
	C89.536827,34.194424 90.722130,32.543381 91.767700,30.389824 
	C100.573082,22.175098 100.573082,22.175098 109.807846,29.733997 
	C111.503601,32.489719 111.481277,35.266289 111.490082,38.014641 
	C111.517662,46.625839 111.621544,55.239449 111.462090,63.847771 
	C111.332413,70.848587 112.008354,77.729286 113.613205,84.951538 
	C112.448647,87.973602 110.724945,88.327759 108.039658,87.240479 
	C104.155495,85.667778 102.771141,86.953270 103.625717,91.041344 
	C104.168327,93.637001 105.070969,96.163391 106.076584,98.608772 
	C108.287331,103.984657 109.819954,109.553421 111.185783,115.582001 
	C109.784172,132.684036 110.808495,149.409637 110.511429,166.118027 
	C110.437233,170.290695 110.668770,174.474808 109.885223,179.063049 
z"/>
<path fill="#E8E8E8" opacity="1.000000" stroke="none" 
	d="
M76.759537,40.500675 
	C79.457199,38.494541 81.902504,36.844624 84.672577,35.092857 
	C87.634888,35.678516 87.420593,37.916370 87.435364,39.830616 
	C87.548157,54.450493 87.413811,69.071777 87.519630,83.690872 
	C87.560158,89.289719 83.556618,91.760246 80.157028,94.934311 
	C79.014427,96.001106 76.527496,96.436111 77.522842,99.317032 
	C77.845558,103.284843 79.307747,106.251183 81.708183,108.960846 
	C84.352074,111.945312 86.322777,115.432343 88.101242,119.459274 
	C87.405525,121.476486 86.232185,123.110840 87.705467,124.734131 
	C90.879173,128.230972 90.502815,132.481293 90.500862,136.680298 
	C90.495850,147.434021 90.555367,158.188232 90.453964,168.941086 
	C90.433037,171.160919 90.897552,173.817459 87.450325,174.966064 
	C83.250191,172.444458 80.415337,168.902634 77.108734,165.398987 
	C73.461037,159.073578 74.720314,152.429535 74.513084,145.978378 
	C74.454765,144.162979 74.463707,142.341599 74.670692,140.091736 
	C77.100716,136.512299 76.137634,133.778015 74.151299,130.755325 
	C72.674973,128.508728 69.599472,126.565590 71.644867,122.732346 
	C74.786453,116.699905 73.924835,110.816551 70.711250,105.997231 
	C68.295937,102.375053 68.972069,99.677559 70.570450,96.733055 
	C73.837166,90.715172 74.679329,84.342461 74.549858,77.615898 
	C74.361404,67.824425 74.530083,58.026093 74.482384,48.231194 
	C74.469261,45.536266 75.020386,43.092613 76.759537,40.500675 
z"/>
<path fill="#DADADA" opacity="1.000000" stroke="none" 
	d="
M56.253586,135.357605 
	C51.550167,128.439926 48.686848,121.162788 45.960468,113.426224 
	C43.595306,96.523766 44.794109,79.892021 44.490540,63.301517 
	C44.431347,60.066357 44.849220,57.085728 47.679100,54.425598 
	C51.118156,52.836746 54.223469,51.571476 57.676945,50.234650 
	C60.648190,50.797768 61.488449,52.609646 61.489033,55.134106 
	C61.492420,69.758980 61.512245,84.383804 61.478680,99.008736 
	C61.471405,102.178108 60.166943,104.913094 58.510906,107.369598 
	C56.997433,109.614647 55.027454,111.523483 55.073597,114.887314 
	C55.611908,117.982262 58.361053,119.331062 59.218060,122.326355 
	C61.098995,126.196236 60.526943,129.870331 60.259533,133.445145 
	C60.123714,135.260834 59.128796,136.986465 56.253586,135.357605 
z"/>
<path fill="#E3E3E3" opacity="1.000000" stroke="none" 
	d="
M76.687469,40.240578 
	C77.006882,54.752575 76.937325,69.361122 77.035667,83.968544 
	C77.065651,88.422615 76.442856,92.555389 73.591240,96.137695 
	C71.142891,99.213417 71.110626,102.457321 72.801262,105.922913 
	C74.327789,109.052078 75.799370,112.217751 76.516235,115.670227 
	C77.215340,119.037155 76.841972,121.971771 73.202621,124.037354 
	C71.643005,126.262688 70.378052,125.348129 69.399086,124.083687 
	C66.891937,120.845436 63.772892,117.845253 64.819565,112.948456 
	C62.004772,112.879753 60.611496,114.737923 58.890221,115.827682 
	C56.614235,117.268646 54.578541,117.498123 52.617676,114.914398 
	C54.902489,110.178741 58.739086,106.959183 61.404392,102.797127 
	C64.110504,98.571342 65.495323,94.204643 65.493866,89.233841 
	C65.490349,77.278061 65.492737,65.322128 65.492661,53.366283 
	C65.492638,50.680431 65.723564,48.092358 67.757065,45.556541 
	C70.799500,43.588158 73.581276,41.962425 76.687469,40.240578 
z"/>
<path fill="#ECECEC" opacity="1.000000" stroke="none" 
	d="
M110.848106,86.333763 
	C107.599495,67.606911 108.785332,49.214115 109.904785,30.417898 
	C112.818649,31.939453 115.641670,33.867813 118.718513,36.029251 
	C120.138710,37.848282 120.952087,39.534081 120.758774,41.594803 
	C119.950790,50.207996 120.473114,58.634773 124.391693,66.960510 
	C121.147110,70.594231 121.717575,74.019531 123.822098,77.600960 
	C124.683327,79.066597 126.192368,80.541954 124.347275,82.710983 
	C122.576355,84.197250 122.063393,85.952209 122.220955,87.731628 
	C122.477570,90.629562 121.432434,92.745117 118.676468,94.376137 
	C116.131775,92.607498 113.463249,91.726761 111.458618,89.553612 
	C110.383446,88.388054 110.411591,87.855278 110.848106,86.333763 
z"/>
<path fill="#DFDFDF" opacity="1.000000" stroke="none" 
	d="
M67.691132,45.317883 
	C68.011246,60.310921 67.810242,75.411583 68.091446,90.503265 
	C68.208351,96.777618 66.511742,101.747643 61.717613,105.901833 
	C58.875103,108.364929 55.851665,110.842056 54.159100,114.807503 
	C54.594357,115.997818 54.255135,116.579315 53.035774,116.992477 
	C50.572098,114.539909 52.054867,112.647514 53.662987,110.866554 
	C56.293571,107.953224 58.466091,104.686127 58.581951,100.739059 
	C59.069073,84.144012 59.733498,67.538849 58.115433,50.559563 
	C61.138252,48.582691 64.251396,47.002285 67.691132,45.317883 
z"/>
<path fill="#E8E8E8" opacity="1.000000" stroke="none" 
	d="
M123.269165,166.748871 
	C121.108803,169.225189 119.147408,171.281281 116.923615,173.537659 
	C112.893326,174.642746 112.622192,172.139801 112.573997,169.495255 
	C112.404991,160.221405 112.621284,150.945145 112.477684,141.672302 
	C112.331764,132.249252 113.017784,122.813026 111.798325,112.959312 
	C111.256660,111.924911 110.900070,111.367355 110.630226,110.772461 
	C107.469582,103.804665 110.189857,99.084702 117.877365,97.857117 
	C121.234528,97.321022 123.220177,98.736557 124.591690,102.101540 
	C125.506676,107.229347 124.455620,111.831657 124.477562,116.451248 
	C124.542892,130.206131 124.507828,143.961838 124.500999,157.717209 
	C124.499557,160.634460 124.511665,163.541718 123.269165,166.748871 
z"/>
<path fill="#ECECEC" opacity="1.000000" stroke="none" 
	d="
M74.265640,101.504196 
	C74.393776,98.190414 76.172050,95.942116 78.399712,94.169037 
	C83.715424,89.938049 85.247948,84.492218 85.096214,77.864464 
	C84.776329,63.892715 84.998413,49.908554 84.997742,35.460243 
	C87.125206,33.409180 89.253052,31.827356 91.693344,30.130371 
	C92.003967,49.891472 91.728897,69.773453 92.144226,89.640991 
	C92.295532,96.878830 90.018272,101.779045 83.170715,104.871201 
	C80.690193,106.658455 79.967201,105.641769 79.953514,103.417343 
	C79.943657,101.816452 81.514008,101.009560 81.962936,99.610176 
	C79.327957,99.948380 77.678032,103.544220 74.265640,101.504196 
z"/>
<path fill="#D4D4D4" opacity="1.000000" stroke="none" 
	d="
M47.635769,54.145546 
	C45.966026,70.495911 47.452881,86.962364 47.002766,103.389076 
	C46.921104,106.369278 47.232437,109.383438 46.046623,112.666862 
	C39.192715,96.718056 36.053814,79.599861 34.750084,62.076328 
	C34.531845,59.142986 35.618805,57.369942 38.625286,56.681755 
	C41.540535,56.014462 44.383808,55.032715 47.635769,54.145546 
z"/>
<path fill="#D7D7D7" opacity="1.000000" stroke="none" 
	d="
M151.694382,53.646126 
	C154.196625,54.085442 156.291855,54.790146 158.699677,55.680702 
	C161.218018,57.794334 161.450333,60.318470 161.492615,63.065380 
	C161.672974,74.783600 161.571426,86.485550 160.533157,98.571747 
	C158.786819,107.094711 156.021637,114.920883 152.268890,122.754303 
	C148.108643,124.588219 147.958084,121.370010 147.719513,119.177681 
	C147.185547,114.270477 147.427811,109.307953 147.533066,104.373703 
	C147.666183,98.133003 146.899338,91.862350 148.261063,85.233276 
	C150.369873,82.517548 151.611633,80.067184 150.369186,76.599991 
	C152.002014,74.746605 151.457947,72.918488 150.859756,71.566788 
	C148.484879,66.200310 149.480606,60.781384 150.139221,55.336338 
	C150.226776,54.612392 150.646027,54.177967 151.694382,53.646126 
z"/>
<path fill="#DFDFDF" opacity="1.000000" stroke="none" 
	d="
M144.423431,137.862610 
	C142.613190,141.429291 140.689957,144.550644 138.516541,147.886353 
	C135.065933,150.391357 133.842010,148.819489 133.631165,145.633820 
	C133.345627,141.319702 133.521317,136.994232 133.504150,132.673767 
	C133.459229,121.361557 133.572266,110.048988 133.436600,98.284637 
	C134.769211,92.749718 131.649780,89.231628 129.131302,85.484634 
	C127.925415,83.690514 125.980232,82.108521 127.321487,79.154541 
	C127.695419,78.572136 127.856018,78.344322 128.329590,77.842781 
	C130.292252,76.143028 131.620316,77.689690 132.767044,78.305000 
	C136.251724,80.174805 139.337875,82.695198 142.949066,85.262085 
	C145.258316,86.285919 145.455612,88.105026 145.414368,89.661499 
	C144.992691,105.578957 146.765991,121.549240 144.423431,137.862610 
z"/>
<path fill="#ECECEC" opacity="1.000000" stroke="none" 
	d="
M112.665604,111.796196 
	C115.171265,114.107422 114.986542,116.820404 114.989807,119.458542 
	C115.008224,134.342514 115.001213,149.226517 115.007866,164.110519 
	C115.009193,167.088394 114.926865,170.081436 116.464096,173.303131 
	C114.590973,175.555008 112.520714,177.372040 110.186417,179.354584 
	C108.698669,177.672668 108.068115,175.632339 108.068024,173.425110 
	C108.067329,155.531387 108.063751,137.637604 108.123749,119.744057 
	C108.129250,118.105873 108.572182,116.469154 108.903236,114.425568 
	C109.715187,112.696907 109.480804,110.085381 112.665604,111.796196 
z"/>
<path fill="#E6E6E6" opacity="1.000000" stroke="none" 
	d="
M121.925308,68.323624 
	C116.525024,58.034496 117.629005,47.562111 118.931824,36.668045 
	C122.857094,38.608631 126.741852,40.954929 130.863739,43.536545 
	C133.381561,47.939342 135.926620,51.977566 137.145737,56.987602 
	C134.149414,62.318783 136.684677,67.051315 137.472931,71.818649 
	C137.750366,73.496704 138.316605,75.053314 137.986176,76.852432 
	C137.624741,78.820412 135.763657,79.487457 134.905487,79.000778 
	C130.077240,76.262642 124.405182,74.479500 121.925308,68.323624 
z"/>
<path fill="#E6E6E6" opacity="1.000000" stroke="none" 
	d="
M123.360001,166.998657 
	C122.250542,164.105057 121.931190,160.980148 122.012337,157.818405 
	C122.475090,139.786560 120.963318,121.721939 122.976364,103.290909 
	C124.551834,100.563530 126.442551,99.032219 129.870636,99.884872 
	C131.907349,101.885117 131.446045,104.125671 131.457458,106.209724 
	C131.537460,120.823677 131.484787,135.438065 131.505920,150.052231 
	C131.509964,152.840424 130.963104,155.517227 130.214203,158.681793 
	C128.364761,162.071915 126.011497,164.453613 123.360001,166.998657 
z"/>
<path fill="#DADADA" opacity="1.000000" stroke="none" 
	d="
M144.733582,138.036865 
	C143.052200,135.762466 143.003357,132.951279 143.003922,130.125076 
	C143.006241,118.383675 143.015442,106.642220 142.983185,94.900894 
	C142.975967,92.276726 143.239883,89.551529 140.943329,87.100182 
	C140.429977,81.531349 137.550354,76.705460 138.248566,71.003235 
	C138.700043,70.495987 138.878448,70.290985 139.401993,69.868698 
	C140.375488,69.495667 141.112808,69.002502 141.639709,69.417793 
	C146.209274,73.019409 150.583252,76.787376 151.170822,83.485344 
	C149.082855,95.424789 150.127243,107.063232 150.314453,118.676888 
	C150.334518,119.921059 151.178101,121.151947 151.845963,122.711227 
	C150.404984,128.295456 147.636185,133.015320 144.733582,138.036865 
z"/>
<path fill="#E3E3E3" opacity="1.000000" stroke="none" 
	d="
M130.372391,158.974640 
	C128.994263,156.146317 129.004547,152.997925 128.997192,149.847916 
	C128.959641,133.792938 128.913834,117.737961 128.850189,101.196457 
	C128.063126,100.290520 127.050964,100.161209 126.975334,98.602005 
	C127.816978,95.623558 129.205673,93.882141 132.595917,93.927673 
	C133.714676,94.058571 134.177780,94.459389 134.714172,95.472206 
	C136.561600,100.891769 135.926483,106.064995 135.971481,111.177979 
	C136.057495,120.950508 135.984955,130.724335 136.014282,140.497513 
	C136.021698,142.966843 135.823990,145.519058 137.994934,147.822449 
	C136.255341,152.037857 133.461014,155.416534 130.372391,158.974640 
z"/>
<path fill="#ECECEC" opacity="1.000000" stroke="none" 
	d="
M87.147591,175.326752 
	C88.960464,160.042725 87.959702,144.978302 87.600037,129.936081 
	C87.505287,125.973457 84.212471,122.735245 84.096649,118.220978 
	C85.765945,116.522957 87.112488,117.127350 88.320580,118.590652 
	C90.013741,120.641518 91.655563,122.721901 92.713997,125.620422 
	C93.911041,128.297165 93.992737,130.775696 93.992203,133.269165 
	C93.989532,145.850922 93.994385,158.432693 93.988785,171.014450 
	C93.987610,173.669342 93.987869,176.330505 92.340820,179.130325 
	C90.510567,178.220322 88.912445,176.908691 87.147591,175.326752 
z"/>
<path fill="#E3E3E3" opacity="1.000000" stroke="none" 
	d="
M76.968414,137.789246 
	C77.001686,146.863586 76.986404,155.508896 76.963806,164.629883 
	C72.731102,161.114609 69.165359,156.584427 65.859718,151.404388 
	C65.783981,143.386307 65.628410,135.721024 62.343811,128.509964 
	C61.389809,126.415543 60.195282,124.335197 61.199490,121.475479 
	C62.657711,120.085236 64.216339,118.433266 65.602089,120.298340 
	C69.672272,125.776398 75.255432,130.284439 76.968414,137.789246 
z"/>
<path fill="#D4D4D4" opacity="1.000000" stroke="none" 
	d="
M160.907394,98.626640 
	C158.813507,96.807648 159.015579,94.106178 159.011642,91.476631 
	C158.994354,79.926155 159.006226,68.375641 159.009888,56.345844 
	C167.423233,57.223778 167.664581,57.394947 167.013428,65.543434 
	C166.126587,76.641380 164.169846,87.562172 160.907394,98.626640 
z"/>
<path fill="#DFDFDF" opacity="1.000000" stroke="none" 
	d="
M63.688705,120.725021 
	C63.271141,124.299774 64.760010,126.947136 65.748230,129.772461 
	C68.136909,136.601700 69.599594,143.534271 65.981323,150.815308 
	C61.874252,146.358917 58.805950,141.144730 55.942833,135.397614 
	C59.319004,131.268738 57.748699,126.943199 57.064659,122.314789 
	C55.689514,118.271866 58.772594,117.424934 60.874954,116.892151 
	C62.258427,116.541550 64.526199,117.665802 63.688705,120.725021 
z"/>
<path fill="#DFDFDF" opacity="1.000000" stroke="none" 
	d="
M135.155197,57.438248 
	C132.840134,53.187370 130.216537,49.477310 131.090088,44.215939 
	C135.193100,45.779381 139.285355,47.786903 143.680450,49.975525 
	C146.942093,55.968643 149.066559,61.970150 147.801147,68.859177 
	C146.229889,69.475159 145.024887,70.557335 143.778656,69.441345 
	C140.137375,66.180580 136.325928,63.016624 135.155197,57.438248 
z"/>
<path fill="#DADADA" opacity="1.000000" stroke="none" 
	d="
M145.249832,68.402962 
	C146.051208,62.364067 142.968903,56.900852 143.984955,50.602455 
	C146.497696,51.136108 149.012085,52.115593 151.813934,53.237907 
	C151.685287,61.489548 151.983597,69.547615 153.833923,77.922806 
	C153.136292,78.749313 152.392822,79.180870 151.553452,78.839325 
	C148.718155,77.685608 144.697479,71.501068 145.249832,68.402962 
z"/>
<path fill="#8C8C8C" opacity="1.000000" stroke="none" 
	d="
M93.088501,125.677399 
	C88.294853,125.322685 87.651421,120.504379 84.359192,118.002396 
	C82.237617,112.186234 77.572197,108.519928 74.351051,103.849922 
	C73.909554,103.209839 73.078468,102.695702 73.933624,101.493019 
	C77.456200,98.881493 80.925880,96.637291 84.216148,94.155251 
	C86.166321,92.684120 87.273849,93.095634 88.639420,94.932411 
	C90.040039,96.816353 89.164848,97.650879 87.813248,98.971542 
	C85.952164,100.790054 82.345345,100.983322 82.613708,104.817703 
	C83.903008,108.138023 85.610855,108.344025 87.964081,106.286232 
	C88.955879,105.418945 90.132523,104.766907 91.175636,103.953537 
	C92.753716,102.723022 93.519890,103.842361 94.332710,104.954865 
	C95.224792,106.175873 96.318634,107.356888 94.428581,108.665665 
	C93.204819,109.513069 92.083305,110.519836 90.815300,111.289307 
	C87.851639,113.087769 89.806488,114.753548 90.742767,116.622284 
	C91.907806,118.947586 93.295288,118.789627 95.071953,117.462334 
	C96.662598,116.273987 98.345474,115.204895 99.896408,113.968704 
	C101.612251,112.601059 102.812759,113.007828 103.960640,114.720016 
	C104.931099,116.167572 105.221153,117.396927 103.541595,118.495682 
	C100.094391,120.750801 97.177666,123.794144 93.088501,125.677399 
z"/>
<path fill="#8C8C8C" opacity="1.000000" stroke="none" 
	d="
M128.007935,98.608398 
	C128.208817,99.426659 128.407562,99.858429 128.717896,100.500061 
	C127.017265,101.210617 125.945549,103.346832 123.398560,102.937569 
	C119.647972,99.667397 113.341911,100.261581 111.616058,104.229622 
	C110.578972,106.614067 113.292915,108.734772 113.079636,111.629341 
	C111.903206,112.621941 110.763275,113.230621 109.308914,113.929337 
	C106.002068,105.272507 102.985130,96.533890 100.035973,87.772469 
	C99.370354,85.795044 98.464905,83.895088 101.008385,82.138908 
	C103.570190,80.370094 104.925880,82.082138 106.640572,83.240211 
	C107.870895,84.071144 109.121849,84.871529 110.681847,85.793243 
	C112.491257,89.069420 116.019989,89.630035 118.704742,91.798187 
	C123.692032,91.500427 126.892075,93.743980 128.007935,98.608398 
z"/>
<path fill="#858585" opacity="1.000000" stroke="none" 
	d="
M63.638496,121.438492 
	C61.236000,116.865372 59.336670,120.197441 57.169647,121.644981 
	C54.117535,121.970032 53.506184,119.741508 52.666389,117.347916 
	C53.017952,116.536415 53.397560,116.094612 53.904903,115.390778 
	C58.604736,114.135071 61.492069,110.434563 65.248962,108.130348 
	C66.776840,107.193275 68.059830,105.703178 69.814827,107.988976 
	C71.413261,110.070839 71.194107,111.577499 68.983940,112.793091 
	C66.228645,114.308502 66.256630,116.043114 68.188805,118.284668 
	C69.695244,120.032310 70.958260,121.989769 72.614525,124.047951 
	C74.729797,126.927559 76.372948,129.769012 78.443390,132.254532 
	C80.468407,134.685516 79.908730,136.261948 77.261688,137.973602 
	C71.616867,133.523529 68.228310,127.230927 63.638496,121.438492 
z"/>
<path fill="#858585" opacity="1.000000" stroke="none" 
	d="
M145.359222,67.961197 
	C148.175858,71.420486 150.739944,74.679253 153.578781,78.143402 
	C155.655594,81.192772 153.315964,82.258095 151.321075,83.723824 
	C147.692902,79.564537 144.345444,75.273438 140.773254,70.737549 
	C140.170685,70.536980 139.805664,70.628876 139.575592,71.030205 
	C140.654190,74.571465 141.539871,77.893356 142.603867,81.157127 
	C143.289795,83.261154 143.263412,85.014336 140.926468,86.546753 
	C137.024261,84.243073 133.378647,81.670341 129.264496,78.861061 
	C128.795959,78.624504 128.638580,78.988213 128.801025,79.106995 
	C128.963470,79.225769 128.736313,79.560562 128.540405,79.611015 
	C130.784454,83.334175 133.207840,87.018036 135.671967,90.674446 
	C136.749130,92.272804 137.670609,93.803093 135.203735,95.538902 
	C134.472260,95.990532 133.975372,96.106491 133.103439,96.145691 
	C127.417465,93.095024 123.347137,89.246361 123.367065,82.244217 
	C121.987236,79.336647 120.642609,76.671783 118.925140,74.273972 
	C116.437538,70.800972 117.517151,68.922935 121.638947,67.872696 
	C126.436935,70.880798 130.479797,74.530235 136.554779,77.603531 
	C134.998550,72.105713 133.899460,67.692406 132.475113,63.386696 
	C131.597702,60.734325 132.089981,58.889393 134.769150,57.302635 
	C139.275757,59.767384 141.541351,64.376045 145.359222,67.961197 
z"/>
<path fill="#E6E6E6" opacity="1.000000" stroke="none" 
	d="
M123.111046,81.942383 
	C126.484283,86.409019 129.470093,90.935875 132.592148,95.765823 
	C131.059631,96.477959 129.747391,97.486038 128.251144,98.792435 
	C125.142853,96.819679 122.275612,94.644470 119.214211,92.195618 
	C118.999695,90.610313 119.230759,89.233521 118.911087,87.999390 
	C118.011749,84.527512 119.117554,82.518311 123.111046,81.942383 
z"/>
<path fill="#ECECEC" opacity="1.000000" stroke="none" 
	d="
M106.651291,92.632187 
	C106.347229,91.371269 105.428970,89.378899 107.124390,90.017845 
	C109.484375,90.907249 111.720856,92.805443 113.322792,94.818787 
	C114.709686,96.561867 112.074371,97.008080 111.182503,97.942406 
	C110.313148,98.853149 109.121773,99.266045 108.447525,97.642220 
	C107.813255,96.114700 107.332771,94.523331 106.651291,92.632187 
z"/>
<path fill="#8C8C8C" opacity="1.000000" stroke="none" 
	d="
M128.072083,78.725677 
	C127.706100,78.597992 127.723289,78.134514 127.857941,77.581024 
	C128.135361,77.790627 128.295288,78.090271 128.072083,78.725677 
z"/>
<path fill="#DADADA" opacity="1.000000" stroke="none" 
	d="
M139.906891,71.078934 
	C139.186600,70.787277 138.964966,70.249107 139.520599,69.677963 
	C139.564926,69.632408 140.005875,69.972710 140.405518,70.313232 
	C140.405975,70.623062 140.263428,70.753357 139.906891,71.078934 
z"/>
<path fill="#DFDFDF" opacity="1.000000" stroke="none" 
	d="
M127.851318,79.213089 
	C127.721779,78.797134 127.754639,78.532806 127.881454,77.879738 
	C128.247604,77.786697 128.519791,78.082397 128.931412,78.645142 
	C128.951691,79.038277 128.832550,79.164352 128.528961,79.475945 
	C128.344513,79.661469 128.013733,79.364716 127.851318,79.213089 
z"/>
</svg>