<svg version="1.1" id="Layer_1" xmlns="http://www.w3.org/2000/svg" xmlns:xlink="http://www.w3.org/1999/xlink" x="0px" y="0px"
	 width="100%" viewBox="0 0 3000 3000" enable-background="new 0 0 3000 3000" xml:space="preserve">
<path fill="#FAFAFA" opacity="1.000000" stroke="none" 
	d="
M1318.000000,3002.000000 
	C878.666748,3002.000000 440.333496,3002.000000 2.000176,3002.000000 
	C2.000118,2002.000244 2.000118,1002.000488 2.000059,2.000579 
	C1001.999573,2.000386 2001.999146,2.000386 3001.999023,2.000193 
	C3001.999512,1001.999329 3001.999512,2001.998657 3001.999756,3001.999023 
	C2441.000000,3002.000000 1880.000000,3002.000000 1318.000000,3002.000000 
M1240.661743,2342.325439 
	C1255.966309,2345.458496 1271.170166,2349.263428 1286.597534,2351.577637 
	C1314.199097,2355.717773 1341.994629,2358.562012 1369.600464,2362.676270 
	C1405.607910,2368.042480 1441.927246,2367.932129 1478.133057,2369.375732 
	C1500.378784,2370.262695 1522.732910,2369.152588 1545.012695,2368.282471 
	C1571.605225,2367.244141 1598.241821,2366.282715 1624.727783,2363.853271 
	C1652.527344,2361.303223 1680.309937,2357.896240 1707.849731,2353.348877 
	C1747.560913,2346.791992 1786.826782,2338.020020 1825.425293,2326.324951 
	C1870.084717,2312.793701 1913.431641,2296.221924 1954.944580,2274.749512 
	C2013.469849,2244.477539 2066.266846,2206.779785 2109.647705,2156.818604 
	C2121.177979,2143.539307 2132.253174,2129.683838 2141.990967,2115.063232 
	C2170.487793,2072.277832 2190.739502,2025.864868 2201.359131,1975.342285 
	C2205.820312,1954.117676 2209.001953,1932.738770 2209.878418,1911.146606 
	C2210.797607,1888.515869 2210.708496,1865.822388 2210.365479,1843.166870 
	C2209.756104,1802.904907 2196.739990,1766.794922 2172.043457,1735.064941 
	C2133.969727,1686.147827 2083.150146,1660.905762 2021.774048,1660.801392 
	C1675.457153,1660.212524 1329.138672,1660.488525 982.820801,1660.593384 
	C963.439392,1660.599243 944.431335,1663.909912 925.889832,1669.767822 
	C890.295898,1681.013306 860.749146,1701.208862 837.040771,1729.908936 
	C812.148804,1760.041870 797.024109,1794.837769 794.783386,1833.637573 
	C792.191895,1878.511841 793.262573,1923.496704 802.174500,1967.949219 
	C812.508789,2019.496582 831.520447,2067.456543 860.602234,2111.254150 
	C881.869690,2143.283447 907.024048,2171.881348 935.908875,2197.471924 
	C965.473633,2223.665039 997.601013,2246.004883 1031.857422,2265.282471 
	C1069.074707,2286.226318 1108.348755,2302.728760 1148.789795,2316.462646 
	C1178.434326,2326.530273 1208.500977,2335.058594 1240.661743,2342.325439 
M1048.105713,1098.865479 
	C1048.678467,1107.156128 1049.480957,1115.438599 1049.779663,1123.739136 
	C1050.573608,1145.795044 1054.473267,1167.475464 1059.770752,1188.708740 
	C1065.391968,1211.239624 1072.483154,1233.507202 1080.507324,1255.310059 
	C1091.467896,1285.091797 1106.846680,1312.838867 1124.649780,1339.064697 
	C1146.398682,1371.103271 1171.299927,1400.415283 1200.583130,1426.077026 
	C1220.936401,1443.913208 1242.405273,1460.034546 1265.362427,1474.187012 
	C1290.915405,1489.939453 1317.937256,1502.692871 1346.092285,1513.233398 
	C1384.700806,1527.687500 1424.555420,1536.825317 1465.524170,1539.464966 
	C1500.036499,1541.688599 1534.682129,1541.515137 1569.157959,1536.217651 
	C1626.399414,1527.421997 1680.289429,1509.108643 1730.275024,1480.012451 
	C1782.015137,1449.895020 1826.572021,1411.254639 1862.950562,1363.537598 
	C1896.147705,1319.993164 1921.011108,1272.136475 1937.142090,1219.704712 
	C1950.453003,1176.439087 1956.912720,1132.147461 1957.402466,1087.038696 
	C1957.687866,1060.749634 1954.570068,1034.640625 1950.260132,1008.652161 
	C1942.509888,961.918701 1927.366943,917.673279 1905.428345,875.879944 
	C1878.569580,824.714111 1843.103760,780.212219 1799.263794,742.362793 
	C1763.695923,711.655273 1724.274170,687.191284 1681.339111,668.410706 
	C1657.840454,658.132019 1633.447388,650.214844 1608.418701,644.464172 
	C1575.263916,636.846497 1541.749512,631.770508 1507.641846,632.130981 
	C1491.350708,632.303101 1475.027832,632.909973 1458.792725,634.225281 
	C1424.168823,637.030457 1390.342773,644.392090 1357.540649,655.577393 
	C1308.976196,672.137390 1264.184204,696.048645 1223.624146,727.671570 
	C1200.723999,745.525818 1179.548462,765.302673 1160.561279,787.177307 
	C1135.636108,815.892822 1114.284546,847.134827 1097.016724,881.187927 
	C1084.629150,905.616821 1074.446899,930.916260 1066.683838,957.026978 
	C1053.141846,1002.574585 1047.004761,1049.307251 1048.105713,1098.865479 
z"/>
<path fill="#8F8F8F" opacity="1.000000" stroke="none" 
	d="
M1239.860107,2342.093506 
	C1208.500977,2335.058594 1178.434326,2326.530273 1148.789795,2316.462646 
	C1108.348755,2302.728760 1069.074707,2286.226318 1031.857422,2265.282471 
	C997.601013,2246.004883 965.473633,2223.665039 935.908875,2197.471924 
	C907.024048,2171.881348 881.869690,2143.283447 860.602234,2111.254150 
	C831.520447,2067.456543 812.508789,2019.496582 802.174500,1967.949219 
	C793.262573,1923.496704 792.191895,1878.511841 794.783386,1833.637573 
	C797.024109,1794.837769 812.148804,1760.041870 837.040771,1729.908936 
	C860.749146,1701.208862 890.295898,1681.013306 925.889832,1669.767822 
	C944.431335,1663.909912 963.439392,1660.599243 982.820801,1660.593384 
	C1329.138672,1660.488525 1675.457153,1660.212524 2021.774048,1660.801392 
	C2083.150146,1660.905762 2133.969727,1686.147827 2172.043457,1735.064941 
	C2196.739990,1766.794922 2209.756104,1802.904907 2210.365479,1843.166870 
	C2210.708496,1865.822388 2210.797607,1888.515869 2209.878418,1911.146606 
	C2209.001953,1932.738770 2205.820312,1954.117676 2201.359131,1975.342285 
	C2190.739502,2025.864868 2170.487793,2072.277832 2141.990967,2115.063232 
	C2132.253174,2129.683838 2121.177979,2143.539307 2109.647705,2156.818604 
	C2066.266846,2206.779785 2013.469849,2244.477539 1954.944580,2274.749512 
	C1913.431641,2296.221924 1870.084717,2312.793701 1825.425293,2326.324951 
	C1786.826782,2338.020020 1747.560913,2346.791992 1707.849731,2353.348877 
	C1680.309937,2357.896240 1652.527344,2361.303223 1624.727783,2363.853271 
	C1598.241821,2366.282715 1571.605225,2367.244141 1545.012695,2368.282471 
	C1522.732910,2369.152588 1500.378784,2370.262695 1478.133057,2369.375732 
	C1441.927246,2367.932129 1405.607910,2368.042480 1369.600464,2362.676270 
	C1341.994629,2358.562012 1314.199097,2355.717773 1286.597534,2351.577637 
	C1271.170166,2349.263428 1255.966309,2345.458496 1239.860107,2342.093506 
z"/>
<path fill="#8F8F8F" opacity="1.000000" stroke="none" 
	d="
M1048.099609,1097.882812 
	C1047.004761,1049.307251 1053.141846,1002.574585 1066.683838,957.026978 
	C1074.446899,930.916260 1084.629150,905.616821 1097.016724,881.187927 
	C1114.284546,847.134827 1135.636108,815.892822 1160.561279,787.177307 
	C1179.548462,765.302673 1200.723999,745.525818 1223.624146,727.671570 
	C1264.184204,696.048645 1308.976196,672.137390 1357.540649,655.577393 
	C1390.342773,644.392090 1424.168823,637.030457 1458.792725,634.225281 
	C1475.027832,632.909973 1491.350708,632.303101 1507.641846,632.130981 
	C1541.749512,631.770508 1575.263916,636.846497 1608.418701,644.464172 
	C1633.447388,650.214844 1657.840454,658.132019 1681.339111,668.410706 
	C1724.274170,687.191284 1763.695923,711.655273 1799.263794,742.362793 
	C1843.103760,780.212219 1878.569580,824.714111 1905.428345,875.879944 
	C1927.366943,917.673279 1942.509888,961.918701 1950.260132,1008.652161 
	C1954.570068,1034.640625 1957.687866,1060.749634 1957.402466,1087.038696 
	C1956.912720,1132.147461 1950.453003,1176.439087 1937.142090,1219.704712 
	C1921.011108,1272.136475 1896.147705,1319.993164 1862.950562,1363.537598 
	C1826.572021,1411.254639 1782.015137,1449.895020 1730.275024,1480.012451 
	C1680.289429,1509.108643 1626.399414,1527.421997 1569.157959,1536.217651 
	C1534.682129,1541.515137 1500.036499,1541.688599 1465.524170,1539.464966 
	C1424.555420,1536.825317 1384.700806,1527.687500 1346.092285,1513.233398 
	C1317.937256,1502.692871 1290.915405,1489.939453 1265.362427,1474.187012 
	C1242.405273,1460.034546 1220.936401,1443.913208 1200.583130,1426.077026 
	C1171.299927,1400.415283 1146.398682,1371.103271 1124.649780,1339.064697 
	C1106.846680,1312.838867 1091.467896,1285.091797 1080.507324,1255.310059 
	C1072.483154,1233.507202 1065.391968,1211.239624 1059.770752,1188.708740 
	C1054.473267,1167.475464 1050.573608,1145.795044 1049.779663,1123.739136 
	C1049.480957,1115.438599 1048.678467,1107.156128 1048.099609,1097.882812 
z"/>
</svg>